<svg fill="#000000" xmlns="http://www.w3.org/2000/svg"  viewBox="0 0 1470 1470"><g transform="matrix(1,0,0,1,-65,0)">
        <path d="M800,650L800,1116.67" style="fill:none;fill-rule:nonzero;stroke:black;stroke-width:100px;"/>
    </g>
    <g transform="matrix(1,0,0,1,-65,0)">
        <path d="M583.333,900L800,1116.67L1016.67,900" style="fill:none;fill-rule:nonzero;stroke:black;stroke-width:100px;"/>
    </g>
    <g transform="matrix(1,0,0,1,-65,0)">
        <path d="M683.333,250L416.667,250C361.433,250 316.667,294.767 316.667,350L316.667,1316.67C316.667,1371.9 361.433,1416.67 416.667,1416.67L1183.33,1416.67C1238.57,1416.67 1283.33,1371.9 1283.33,1316.67L1283.33,350C1283.33,294.767 1238.57,250 1183.33,250L916.667,250" style="fill:none;fill-rule:nonzero;stroke:black;stroke-width:100px;stroke-linecap:butt;"/>
    </g>
    <g transform="matrix(1,0,0,1,-65,0)">
        <path d="M916.667,350L683.333,350L683.333,166.667C683.333,102.233 735.567,50 800,50C864.433,50 916.667,102.233 916.667,166.667L916.667,350Z" style="fill:none;fill-rule:nonzero;stroke:black;stroke-width:100px;stroke-linecap:butt;"/>
    </g></svg>