<svg fill="#000000" xmlns="http://www.w3.org/2000/svg"  viewBox="0 0 1600 1600"><g transform="matrix(1.198,0,0,1.198,-158.4,-158.4)">
        <path d="M800,133.333C747.437,133.333 696.755,139.981 648.372,151.237C627.745,156.052 612.314,173.474 610.026,194.531L599.414,291.276C595.943,322.979 577.63,351.028 550,366.992C522.425,382.924 488.954,384.689 459.766,371.875L459.701,371.875L370.833,332.747C351.454,324.219 328.665,328.882 314.193,344.336C245.11,417.986 192.089,507.169 161.979,606.706C155.847,626.96 163.207,649.011 180.273,661.523L259.115,719.336C284.86,738.264 300,768.093 300,800C300,831.924 284.86,861.778 259.115,880.664L180.273,938.411C163.207,950.923 155.847,972.975 161.979,993.229C192.086,1092.76 245.064,1182 314.193,1255.66C328.681,1271.1 351.468,1275.73 370.833,1267.19L459.701,1228.06C488.903,1215.22 522.406,1217.07 550,1233.01C577.63,1248.97 595.943,1277.02 599.414,1308.72L610.026,1405.47C612.331,1426.48 627.726,1443.87 648.307,1448.7C696.712,1460 747.437,1466.67 800,1466.67C852.563,1466.67 903.245,1460.02 951.628,1448.76C972.255,1443.95 987.686,1426.53 989.974,1405.47L1000.59,1308.72C1004.06,1277.02 1022.37,1248.97 1050,1233.01C1077.58,1217.08 1111.05,1215.25 1140.23,1228.06L1229.17,1267.19C1248.53,1275.73 1271.32,1271.1 1285.81,1255.66C1354.89,1182.01 1407.91,1092.77 1438.02,993.229C1444.15,972.975 1436.79,950.923 1419.73,938.411L1340.88,880.664C1315.14,861.778 1300,831.924 1300,800C1300,768.076 1315.14,738.222 1340.88,719.336L1419.73,661.589C1436.79,649.077 1444.15,627.025 1438.02,606.771C1407.91,507.234 1354.89,417.986 1285.81,344.336C1271.32,328.904 1248.53,324.268 1229.17,332.813L1140.23,371.94C1111.05,384.754 1077.58,382.924 1050,366.992C1022.37,351.028 1004.06,322.979 1000.59,291.276L989.974,194.531C987.669,173.516 972.274,156.133 951.693,151.302C903.288,140.005 852.563,133.333 800,133.333ZM800,233.333C832.477,233.333 863.664,239.163 894.922,244.661L901.172,302.148C908.101,365.446 944.897,421.745 1000,453.581C1055.14,485.438 1122.27,489.1 1180.53,463.477L1233.4,440.234C1273.99,488.98 1306.13,544.039 1328.58,604.362L1281.71,638.737C1230.38,676.384 1200,736.324 1200,800C1200,863.676 1230.38,923.616 1281.71,961.263L1328.58,995.638C1306.13,1055.96 1273.99,1111.02 1233.4,1159.77L1180.53,1136.52C1122.27,1110.9 1055.14,1114.56 1000,1146.42C944.897,1178.26 908.101,1234.55 901.172,1297.85L894.922,1355.34C863.667,1360.82 832.461,1366.67 800,1366.67C767.523,1366.67 736.336,1360.84 705.078,1355.34L698.828,1297.85C691.899,1234.55 655.103,1178.26 600,1146.42C544.861,1114.56 477.73,1110.9 419.466,1136.52L366.602,1159.77C325.999,1111.03 293.865,1055.96 271.419,995.638L318.294,961.263C369.615,923.616 400,863.676 400,800C400,736.324 369.591,676.345 318.294,638.672L271.419,604.297C293.878,543.951 326.048,488.928 366.667,440.169L419.466,463.411C477.73,489.035 544.861,485.438 600,453.581C655.103,421.745 691.899,365.446 698.828,302.148L705.078,244.661C736.333,239.178 767.539,233.333 800,233.333ZM800,533.333C653.316,533.333 533.333,653.316 533.333,800C533.333,946.684 653.316,1066.67 800,1066.67C946.684,1066.67 1066.67,946.684 1066.67,800C1066.67,653.316 946.684,533.333 800,533.333ZM800,633.333C892.64,633.333 966.667,707.36 966.667,800C966.667,892.64 892.64,966.667 800,966.667C707.36,966.667 633.333,892.64 633.333,800C633.333,707.36 707.36,633.333 800,633.333Z" style="fill-rule:nonzero;"/>
    </g></svg>