<svg fill="#000000" xmlns="http://www.w3.org/2000/svg" viewBox="0 0 1600 1600">
    <g transform="matrix(1.1995,0,0,1.1995,-161.207,-161.6)">
        <path d="M800,133.333C616.497,133.333 466.667,283.164 466.667,466.667C466.667,650.169 616.497,800 800,800C983.503,800 1133.33,650.169 1133.33,466.667C1133.33,283.164 983.503,133.333 800,133.333ZM800,233.333C929.459,233.333 1033.33,337.208 1033.33,466.667C1033.33,596.125 929.459,700 800,700C670.541,700 566.667,596.125 566.667,466.667C566.667,337.208 670.541,233.333 800,233.333ZM399.284,933.333C326.623,933.333 266.667,993.29 266.667,1065.95L266.667,1116.67C266.667,1236.81 342.642,1329.74 443.555,1385.42C544.467,1441.09 672.27,1466.67 800,1466.67C927.73,1466.67 1055.53,1441.09 1156.44,1385.42C1242.49,1337.94 1307.25,1262.09 1325.39,1166.67L1333.4,1166.67L1333.4,1065.95C1333.4,993.29 1273.38,933.333 1200.72,933.333L399.284,933.333ZM399.284,1033.33L1200.72,1033.33C1219.32,1033.33 1233.4,1047.34 1233.4,1065.95L1233.4,1066.67L1233.33,1066.67L1233.33,1116.67C1233.33,1196.53 1188.48,1253.59 1108.14,1297.92C1027.8,1342.24 913.937,1366.67 800,1366.67C686.063,1366.67 572.2,1342.24 491.862,1297.92C411.524,1253.59 366.667,1196.53 366.667,1116.67L366.667,1065.95C366.667,1047.34 380.678,1033.33 399.284,1033.33Z"/>
    </g>
</svg>