<svg fill="#000000" xmlns="http://www.w3.org/2000/svg"  viewBox="0 0 1340 1340"><g transform="matrix(1,0,0,1,-130,-130)">
        <path d="M283.333,266.667C201.083,266.667 133.333,334.417 133.333,416.667L133.333,1183.33C133.333,1265.58 201.083,1333.33 283.333,1333.33L1316.67,1333.33C1398.92,1333.33 1466.67,1265.58 1466.67,1183.33L1466.67,583.333C1466.67,501.083 1398.92,433.333 1316.67,433.333L801.432,433.333L652.474,309.18C652.452,309.18 652.431,309.18 652.409,309.18C619.47,281.737 577.972,266.667 535.091,266.667L283.333,266.667ZM283.333,366.667L535.091,366.667C554.61,366.667 573.419,373.512 588.411,386.003L751.302,521.745C760.292,529.236 771.632,533.338 783.333,533.333L1316.67,533.333C1344.88,533.333 1366.67,555.117 1366.67,583.333L1366.67,1183.33C1366.67,1211.55 1344.88,1233.33 1316.67,1233.33L283.333,1233.33C255.117,1233.33 233.333,1211.55 233.333,1183.33L233.333,416.667C233.333,388.45 255.117,366.667 283.333,366.667ZM952.279,600.911C905.24,600.314 857.963,617.555 821.94,652.734L800,674.219L778.06,652.799C742.034,617.64 694.808,600.392 647.786,600.977C600.765,601.561 553.952,619.964 518.815,655.99C448.51,728.026 449.972,844.933 522.005,915.234L765.104,1152.47C784.4,1171.28 815.6,1171.28 834.896,1152.47L1078.06,915.169C1150.07,844.889 1151.49,728.031 1081.25,655.99C1046.12,619.944 999.317,601.509 952.279,600.911ZM648.958,700.326C670.184,700.068 691.529,708.075 708.203,724.349L765.104,779.818C784.4,798.618 815.6,798.618 834.896,779.818L891.797,724.349C891.819,724.327 891.84,724.306 891.862,724.284C908.539,707.997 929.829,700.06 951.042,700.326C972.254,700.592 993.369,709.093 1009.63,725.781C1042.2,759.145 1041.57,811.055 1008.2,843.62L800,1046.81L591.797,843.62C558.43,811.055 557.803,759.21 590.365,725.846C590.365,725.825 590.365,725.803 590.365,725.781C606.627,709.107 627.733,700.583 648.958,700.326Z" style="fill-rule:nonzero;"/>
    </g></svg>