<svg fill="#000000" xmlns="http://www.w3.org/2000/svg"  viewBox="0 0 1600 1600"><g transform="matrix(1.3325,0,0,1.3325,-266.5,-266.5)">
        <path d="M416.667,200C297.602,200 200,297.602 200,416.667L200,1183.33C200,1302.4 297.602,1400 416.667,1400L1183.33,1400C1302.4,1400 1400,1302.4 1400,1183.33L1400,416.667C1400,297.602 1302.4,200 1183.33,200L416.667,200ZM416.667,300L1183.33,300C1248.34,300 1300,351.665 1300,416.667L1300,466.667L300,466.667L300,416.667C300,351.665 351.665,300 416.667,300ZM300,566.667L1300,566.667L1300,1183.33C1300,1248.34 1248.34,1300 1183.33,1300L416.667,1300C351.665,1300 300,1248.34 300,1183.33L300,566.667ZM516.667,700C470.951,700 433.333,737.618 433.333,783.333C433.333,829.049 470.951,866.667 516.667,866.667C562.382,866.667 600,829.049 600,783.333C600,737.618 562.382,700 516.667,700ZM800,700C754.285,700 716.667,737.618 716.667,783.333C716.667,829.049 754.285,866.667 800,866.667C845.715,866.667 883.333,829.049 883.333,783.333C883.333,737.618 845.715,700 800,700ZM1083.33,700C1037.62,700 1000,737.618 1000,783.333C1000,829.049 1037.62,866.667 1083.33,866.667C1129.05,866.667 1166.67,829.049 1166.67,783.333C1166.67,737.618 1129.05,700 1083.33,700ZM516.667,1000C470.951,1000 433.333,1037.62 433.333,1083.33C433.333,1129.05 470.951,1166.67 516.667,1166.67C562.382,1166.67 600,1129.05 600,1083.33C600,1037.62 562.382,1000 516.667,1000ZM800,1000C754.285,1000 716.667,1037.62 716.667,1083.33C716.667,1129.05 754.285,1166.67 800,1166.67C845.715,1166.67 883.333,1129.05 883.333,1083.33C883.333,1037.62 845.715,1000 800,1000Z" style="fill-rule:nonzero;"/>
    </g></svg>