<svg fill="#000000" xmlns="http://www.w3.org/2000/svg"  viewBox="0 0 1600 1600"><g transform="matrix(1.23077,0,0,1.23077,-204.462,-187.385)">
        <path d="M350,200C249.341,200 166.667,282.674 166.667,383.333L166.667,1216.67C166.667,1317.33 249.341,1400 350,1400L1283.33,1400C1383.99,1400 1466.67,1317.33 1466.67,1216.67L1466.67,383.333C1466.67,282.674 1383.99,200 1283.33,200L350,200ZM350,300L1283.33,300C1329.94,300 1366.67,336.726 1366.67,383.333L1366.67,1216.67C1366.67,1263.27 1329.94,1300 1283.33,1300L350,1300C303.392,1300 266.667,1263.27 266.667,1216.67L266.667,383.333C266.667,336.726 303.392,300 350,300ZM366.667,350C348.267,350 333.333,364.933 333.333,383.333L333.333,416.667C333.333,435.067 348.267,450 366.667,450L400,450C418.4,450 433.333,435.067 433.333,416.667L433.333,383.333C433.333,364.933 418.4,350 400,350L366.667,350ZM1233.33,350C1214.93,350 1200,364.933 1200,383.333L1200,416.667C1200,435.067 1214.93,450 1233.33,450L1266.67,450C1285.07,450 1300,435.067 1300,416.667L1300,383.333C1300,364.933 1285.07,350 1266.67,350L1233.33,350ZM683.333,533.398C668.77,533.398 654.043,537.201 640.951,544.922C615.478,559.97 600,587.195 600,616.732L600,983.398C600,1012.87 615.401,1039.96 640.885,1055.01C666.823,1070.43 697.284,1070.78 723.503,1056.38L1056.84,873.047L1056.9,872.982C1083.33,858.401 1100,830.405 1100,800.065C1100,769.725 1083.33,741.665 1056.9,727.083L1056.84,727.018L723.438,543.685L723.372,543.62C710.907,536.807 697.1,533.398 683.333,533.398ZM366.667,550C348.267,550 333.333,564.933 333.333,583.333L333.333,616.667C333.333,635.067 348.267,650 366.667,650L400,650C418.4,650 433.333,635.067 433.333,616.667L433.333,583.333C433.333,564.933 418.4,550 400,550L366.667,550ZM1233.33,550C1214.93,550 1200,564.933 1200,583.333L1200,616.667C1200,635.067 1214.93,650 1233.33,650L1266.67,650C1285.07,650 1300,635.067 1300,616.667L1300,583.333C1300,564.933 1285.07,550 1266.67,550L1233.33,550ZM700,644.857L982.096,800L700,955.208L700,644.857ZM366.667,750C348.267,750 333.333,764.933 333.333,783.333L333.333,816.667C333.333,835.067 348.267,850 366.667,850L400,850C418.4,850 433.333,835.067 433.333,816.667L433.333,783.333C433.333,764.933 418.4,750 400,750L366.667,750ZM1233.33,750C1214.93,750 1200,764.933 1200,783.333L1200,816.667C1200,835.067 1214.93,850 1233.33,850L1266.67,850C1285.07,850 1300,835.067 1300,816.667L1300,783.333C1300,764.933 1285.07,750 1266.67,750L1233.33,750ZM366.667,950C348.267,950 333.333,964.933 333.333,983.333L333.333,1016.67C333.333,1035.07 348.267,1050 366.667,1050L400,1050C418.4,1050 433.333,1035.07 433.333,1016.67L433.333,983.333C433.333,964.933 418.4,950 400,950L366.667,950ZM1233.33,950C1214.93,950 1200,964.933 1200,983.333L1200,1016.67C1200,1035.07 1214.93,1050 1233.33,1050L1266.67,1050C1285.07,1050 1300,1035.07 1300,1016.67L1300,983.333C1300,964.933 1285.07,950 1266.67,950L1233.33,950ZM366.667,1150C348.267,1150 333.333,1164.93 333.333,1183.33L333.333,1216.67C333.333,1235.07 348.267,1250 366.667,1250L400,1250C418.4,1250 433.333,1235.07 433.333,1216.67L433.333,1183.33C433.333,1164.93 418.4,1150 400,1150L366.667,1150ZM1233.33,1150C1214.93,1150 1200,1164.93 1200,1183.33L1200,1216.67C1200,1235.07 1214.93,1250 1233.33,1250L1266.67,1250C1285.07,1250 1300,1235.07 1300,1216.67L1300,1183.33C1300,1164.93 1285.07,1150 1266.67,1150L1233.33,1150Z" style="fill-rule:nonzero;"/>
    </g></svg>