<svg fill="#000000" xmlns="http://www.w3.org/2000/svg"  viewBox="0 0 1340 1340"><g transform="matrix(1,0,0,1,-130,-130)">
        <path d="M416.667,133.333C334.417,133.333 266.667,201.083 266.667,283.333L266.667,1316.67C266.667,1398.92 334.417,1466.67 416.667,1466.67L1183.33,1466.67C1265.58,1466.67 1333.33,1398.92 1333.33,1316.67L1333.33,616.667C1333.33,603.412 1328.06,590.687 1318.68,581.315L885.352,147.982C875.98,138.609 863.255,133.336 850,133.333L416.667,133.333ZM416.667,233.333L800,233.333L800,516.667C800,598.917 867.75,666.667 950,666.667L1233.33,666.667L1233.33,1316.67C1233.33,1344.88 1211.55,1366.67 1183.33,1366.67L416.667,1366.67C388.45,1366.67 366.667,1344.88 366.667,1316.67L366.667,283.333C366.667,255.117 388.45,233.333 416.667,233.333ZM900,304.036L1162.63,566.667L950,566.667C921.783,566.667 900,544.883 900,516.667L900,304.036ZM650,733.398C635.437,733.398 620.71,737.201 607.617,744.922C582.145,759.97 566.667,787.13 566.667,816.667L566.667,1183.33C566.667,1212.77 582.052,1239.89 607.487,1254.95C633.437,1270.4 663.932,1270.79 690.169,1256.38L1023.5,1072.98L1023.57,1072.98C1050,1058.4 1066.67,1030.34 1066.67,1000C1066.67,969.66 1050,941.6 1023.57,927.018L1023.5,927.018L690.104,743.62L690.039,743.62C677.572,736.804 663.766,733.398 650,733.398ZM666.667,844.792L948.828,1000L666.667,1155.21L666.667,844.792ZM641.992,1168.68C642.039,1168.66 642.076,1168.71 642.122,1168.68L641.992,1168.75L641.992,1168.68Z" style="fill-rule:nonzero;"/>
    </g></svg>