<svg fill="#000000" xmlns="http://www.w3.org/2000/svg"  viewBox="0 0 1340 1340"><g transform="matrix(1,0,0,1,-130,-130)">
        <path d="M416.667,133.333C334.417,133.333 266.667,201.083 266.667,283.333L266.667,1316.67C266.667,1398.92 334.417,1466.67 416.667,1466.67L1183.33,1466.67C1265.58,1466.67 1333.33,1398.92 1333.33,1316.67L1333.33,616.667C1333.33,603.412 1328.06,590.687 1318.68,581.315L885.352,147.982C875.98,138.609 863.255,133.336 850,133.333L416.667,133.333ZM416.667,233.333L800,233.333L800,516.667C800,598.917 867.75,666.667 950,666.667L1233.33,666.667L1233.33,1316.67C1233.33,1344.88 1211.55,1366.67 1183.33,1366.67L416.667,1366.67C388.45,1366.67 366.667,1344.88 366.667,1316.67L366.667,283.333C366.667,255.117 388.45,233.333 416.667,233.333ZM900,304.036L1162.63,566.667L950,566.667C921.783,566.667 900,544.883 900,516.667L900,304.036ZM829.753,766.862C824.415,767.445 819.232,769.313 814.648,772.396C805.515,778.596 800,788.933 800,800L800,1080.53C780.333,1071.93 757.733,1066.67 733.333,1066.67C659.7,1066.67 600,1111.43 600,1166.67C600,1221.9 659.7,1266.67 733.333,1266.67C806.967,1266.67 866.667,1221.9 866.667,1166.67L866.667,949.219L987.63,997.656C997.93,1001.79 1009.55,1000.47 1018.69,994.271C1027.85,988.071 1033.33,977.733 1033.33,966.667L1033.33,911.784C1033.33,870.651 1008.64,834.245 970.443,818.945L845.703,769.01C840.57,766.96 835.09,766.279 829.753,766.862Z" style="fill-rule:nonzero;"/>
    </g></svg>