<svg fill="#FFFFFF" xmlns="http://www.w3.org/2000/svg"  viewBox="0 0 1330 1330"> <g transform="matrix(1,0,0,1,-135,-135)">
        <path d="M800,133.333C683.056,133.333 585.68,220.714 569.336,333.333L341.276,333.333C338.437,332.848 335.562,332.608 332.682,332.617C330.194,332.671 327.713,332.91 325.26,333.333L216.667,333.333C216.431,333.33 216.195,333.328 215.96,333.328C188.528,333.328 165.955,355.901 165.955,383.333C165.955,410.765 188.528,433.338 215.96,433.338C216.195,433.338 216.431,433.337 216.667,433.333L287.956,433.333L371.875,1300.98C380.911,1394.53 460.393,1466.67 554.362,1466.67L1045.57,1466.67C1139.55,1466.67 1219.03,1394.54 1228.06,1300.98L1312.04,433.333L1383.33,433.333C1383.57,433.337 1383.81,433.338 1384.04,433.338C1411.47,433.338 1434.05,410.765 1434.05,383.333C1434.05,355.901 1411.47,333.328 1384.04,333.328C1383.81,333.328 1383.57,333.33 1383.33,333.333L1274.81,333.333C1269.5,332.473 1264.09,332.473 1258.79,333.333L1030.66,333.333C1014.32,220.714 916.944,133.333 800,133.333ZM800,233.333C862.639,233.333 914.026,275.605 928.711,333.333L671.289,333.333C685.974,275.605 737.361,233.333 800,233.333ZM388.346,433.333L1211.59,433.333L1128.52,1291.34C1124.35,1334.51 1088.93,1366.67 1045.57,1366.67L554.362,1366.67C511.065,1366.67 475.583,1334.45 471.419,1291.34L388.346,433.333ZM682.552,599.284C655.148,599.712 632.94,622.595 633.333,650L633.333,1150C633.33,1150.24 633.328,1150.47 633.328,1150.71C633.328,1178.14 655.901,1200.71 683.333,1200.71C710.765,1200.71 733.338,1178.14 733.338,1150.71C733.338,1150.47 733.337,1150.24 733.333,1150L733.333,650C733.337,649.761 733.338,649.522 733.338,649.283C733.338,621.851 710.765,599.278 683.333,599.278C683.073,599.278 682.813,599.28 682.552,599.284ZM915.885,599.284C888.481,599.712 866.274,622.595 866.667,650L866.667,1150C866.663,1150.24 866.662,1150.47 866.662,1150.71C866.662,1178.14 889.235,1200.71 916.667,1200.71C944.099,1200.71 966.672,1178.14 966.672,1150.71C966.672,1150.47 966.67,1150.24 966.667,1150L966.667,650C966.67,649.761 966.672,649.522 966.672,649.283C966.672,621.851 944.099,599.278 916.667,599.278C916.406,599.278 916.146,599.28 915.885,599.284Z" style="fill-rule:nonzero;"/>
    </g></svg>