<svg fill="#000000" xmlns="http://www.w3.org/2000/svg"  viewBox="0 0 1405 1405"><g transform="matrix(1,0,0,1,-130,-130)">
        <path d="M800,133.333C690.138,133.333 600,223.471 600,333.333L250,333.333C249.764,333.33 249.529,333.328 249.293,333.328C221.861,333.328 199.288,355.901 199.288,383.333C199.288,410.765 221.861,433.338 249.293,433.338C249.529,433.338 249.764,433.337 250,433.333L333.333,433.333L333.333,1283.33C333.333,1384.43 415.567,1466.67 516.667,1466.67L854.427,1466.67C825.927,1437.03 801.687,1403.43 782.487,1366.67L516.667,1366.67C470.733,1366.67 433.333,1329.27 433.333,1283.33L433.333,433.333L1166.67,433.333L1166.67,733.333C1201.13,733.333 1234.5,737.778 1266.67,745.378L1266.67,433.333L1350,433.333C1350.24,433.337 1350.47,433.338 1350.71,433.338C1378.14,433.338 1400.71,410.765 1400.71,383.333C1400.71,355.901 1378.14,333.328 1350.71,333.328C1350.47,333.328 1350.24,333.33 1350,333.333L1000,333.333C1000,223.471 909.862,133.333 800,133.333ZM800,233.333C855.805,233.333 900,277.529 900,333.333L700,333.333C700,277.529 744.196,233.333 800,233.333ZM682.552,599.284C655.148,599.712 632.94,622.595 633.333,650L633.333,1150C633.33,1150.24 633.328,1150.47 633.328,1150.71C633.328,1178.14 655.901,1200.71 683.333,1200.71C710.765,1200.71 733.338,1178.14 733.338,1150.71C733.338,1150.47 733.337,1150.24 733.333,1150L733.333,650C733.337,649.761 733.338,649.522 733.338,649.283C733.338,621.851 710.765,599.278 683.333,599.278C683.073,599.278 682.813,599.28 682.552,599.284ZM916.667,600C889.033,600 866.667,622.367 866.667,650L866.667,854.427C896.3,825.927 929.9,801.687 966.667,782.487L966.667,650C966.667,622.367 944.3,600 916.667,600ZM1166.67,800C964.167,800 800,964.167 800,1166.67C800,1369.17 964.167,1533.33 1166.67,1533.33C1369.17,1533.33 1533.33,1369.17 1533.33,1166.67C1533.33,964.167 1369.17,800 1166.67,800ZM1000,966.667C1008.52,966.667 1017.05,969.916 1023.57,976.432L1166.67,1119.53L1309.77,976.432C1322.8,963.399 1343.87,963.399 1356.9,976.432C1369.93,989.466 1369.93,1010.53 1356.9,1023.57L1213.8,1166.67L1356.9,1309.77C1369.93,1322.8 1369.93,1343.87 1356.9,1356.9C1350.4,1363.4 1341.87,1366.67 1333.33,1366.67C1324.8,1366.67 1316.27,1363.4 1309.77,1356.9L1166.67,1213.8L1023.57,1356.9C1017.07,1363.4 1008.53,1366.67 1000,1366.67C991.467,1366.67 982.932,1363.4 976.432,1356.9C963.399,1343.87 963.399,1322.8 976.432,1309.77L1119.53,1166.67L976.432,1023.57C963.399,1010.53 963.399,989.466 976.432,976.432C982.949,969.916 991.475,966.667 1000,966.667Z" style="fill-rule:nonzero;"/>
    </g></svg>