<svg fill="#000000" xmlns="http://www.w3.org/2000/svg"  viewBox="0 0 1600 1600"><g transform="matrix(1.11651,0,0,1.11651,-114.651,-186.605)">
        <path d="M283.333,233.333C182.233,233.333 100,315.6 100,416.667L100,1183.33C100,1284.4 182.233,1366.67 283.333,1366.67L733.333,1366.67C733.333,1330.87 741.718,1297.03 756.185,1266.67L283.333,1266.67C237.4,1266.67 200,1229.3 200,1183.33L200,416.667C200,370.7 237.4,333.333 283.333,333.333L1316.67,333.333C1362.6,333.333 1400,370.7 1400,416.667L1400,701.693C1418.73,704.393 1437.12,711.141 1453.32,723.307C1479.05,742.607 1494.56,770.5 1498.83,800L1500,800L1500,416.667C1500,315.6 1417.77,233.333 1316.67,233.333L283.333,233.333ZM283.333,400C264.933,400 250,414.933 250,433.333L250,466.667C250,485.067 264.933,500 283.333,500L316.667,500C335.067,500 350,485.067 350,466.667L350,433.333C350,414.933 335.067,400 316.667,400L283.333,400ZM483.333,400C464.933,400 450,414.933 450,433.333L450,466.667C450,485.067 464.933,500 483.333,500L516.667,500C535.067,500 550,485.067 550,466.667L550,433.333C550,414.933 535.067,400 516.667,400L483.333,400ZM683.333,400C664.933,400 650,414.933 650,433.333L650,466.667C650,485.067 664.933,500 683.333,500L716.667,500C735.067,500 750,485.067 750,466.667L750,433.333C750,414.933 735.067,400 716.667,400L683.333,400ZM883.333,400C864.933,400 850,414.933 850,433.333L850,466.667C850,485.067 864.933,500 883.333,500L916.667,500C935.067,500 950,485.067 950,466.667L950,433.333C950,414.933 935.067,400 916.667,400L883.333,400ZM1083.33,400C1064.93,400 1050,414.933 1050,433.333L1050,466.667C1050,485.067 1064.93,500 1083.33,500L1116.67,500C1135.07,500 1150,485.067 1150,466.667L1150,433.333C1150,414.933 1135.07,400 1116.67,400L1083.33,400ZM1283.33,400C1264.93,400 1250,414.933 1250,433.333L1250,466.667C1250,485.067 1264.93,500 1283.33,500L1316.67,500C1335.07,500 1350,485.067 1350,466.667L1350,433.333C1350,414.933 1335.07,400 1316.67,400L1283.33,400ZM1386.2,765.625C1369.3,764.93 1353.15,772.857 1343.36,786.654L1158.98,1032.42L955.273,784.896C945.741,772.99 931.267,766.078 916.016,766.146C888.67,766.271 866.239,788.805 866.239,816.15C866.239,827.969 870.429,839.413 878.06,848.438L1097.2,1114.78L1025.72,1210.03C1007.54,1203.65 987.694,1200 966.667,1200C915.278,1200 870.405,1221.07 841.797,1253.26C813.189,1285.44 800,1326.39 800,1366.67C800,1406.94 813.189,1447.89 841.797,1480.08C870.405,1512.26 915.278,1533.33 966.667,1533.33C1018.06,1533.33 1062.93,1512.26 1091.54,1480.08C1120.14,1447.89 1133.33,1406.94 1133.33,1366.67C1133.33,1333.5 1123.82,1300.16 1104.69,1271.35L1162.57,1194.21L1227.41,1273.05C1209.06,1301.47 1200,1334.16 1200,1366.67C1200,1406.94 1213.19,1447.89 1241.8,1480.08C1270.4,1512.26 1315.28,1533.33 1366.67,1533.33C1418.06,1533.33 1462.93,1512.26 1491.54,1480.08C1520.14,1447.89 1533.33,1406.94 1533.33,1366.67C1533.33,1326.39 1520.14,1285.44 1491.54,1253.26C1462.93,1221.07 1418.06,1200 1366.67,1200C1344.9,1200 1324.42,1203.94 1305.73,1210.74L1224.35,1111.91L1423.31,846.68C1430.33,837.839 1434.15,826.876 1434.15,815.588C1434.15,788.931 1412.83,766.72 1386.2,765.625ZM283.333,1100C264.933,1100 250,1114.93 250,1133.33L250,1166.67C250,1185.07 264.933,1200 283.333,1200L316.667,1200C335.067,1200 350,1185.07 350,1166.67L350,1133.33C350,1114.93 335.067,1100 316.667,1100L283.333,1100ZM483.333,1100C464.933,1100 450,1114.93 450,1133.33L450,1166.67C450,1185.07 464.933,1200 483.333,1200L516.667,1200C535.067,1200 550,1185.07 550,1166.67L550,1133.33C550,1114.93 535.067,1100 516.667,1100L483.333,1100ZM683.333,1100C664.933,1100 650,1114.93 650,1133.33L650,1166.67C650,1185.07 664.933,1200 683.333,1200L716.667,1200C735.067,1200 750,1185.07 750,1166.67L750,1133.33C750,1114.93 735.067,1100 716.667,1100L683.333,1100ZM966.667,1300C979.861,1300 989.903,1302.06 997.852,1305.53C1003.13,1312.89 1010.31,1318.67 1018.62,1322.27C1027.7,1333.76 1033.33,1349.82 1033.33,1366.67C1033.33,1384.72 1027.08,1402.11 1016.8,1413.67C1006.52,1425.24 993.056,1433.33 966.667,1433.33C940.278,1433.33 926.817,1425.24 916.536,1413.67C906.256,1402.11 900,1384.72 900,1366.67C900,1348.61 906.256,1331.23 916.536,1319.66C926.817,1308.1 940.278,1300 966.667,1300ZM1366.67,1300C1393.06,1300 1406.52,1308.1 1416.8,1319.66C1427.08,1331.23 1433.33,1348.61 1433.33,1366.67C1433.33,1384.72 1427.08,1402.11 1416.8,1413.67C1406.52,1425.24 1393.06,1433.33 1366.67,1433.33C1340.28,1433.33 1326.82,1425.24 1316.54,1413.67C1306.26,1402.11 1300,1384.72 1300,1366.67C1300,1349.41 1305.81,1332.89 1315.3,1321.35C1322.81,1317.95 1329.37,1312.74 1334.38,1306.18C1342.54,1302.35 1352.73,1300 1366.67,1300Z" style="fill-rule:nonzero;"/>
    </g></svg>