<svg xmlns="http://www.w3.org/2000/svg"  viewBox="0 0 24 24" width="1600px" height="1600px"><g fill="#f44336"><path d="m20.132 17.303-13.435-13.435c-.586-.586-1.536-.586-2.121 0l-.708.707c-.586.586-.586 1.536 0 2.121l13.435 13.435c.586.586 1.536.586 2.121 0l.707-.707c.587-.585.587-1.535.001-2.121z"/><path d="m17.303 3.868-13.435 13.435c-.586.586-.586 1.536 0 2.121l.707.707c.586.586 1.536.586 2.121 0l13.436-13.434c.586-.586.586-1.536 0-2.121l-.707-.707c-.586-.587-1.536-.587-2.122-.001z"/></g></svg>