<svg fill="#FFFFFF" xmlns="http://www.w3.org/2000/svg"  viewBox="0 0 1600 1600"><g transform="matrix(1.20025,0,0,1.20025,-160.6,-160.7)">
        <path d="M416.667,133.333C334.417,133.333 266.667,201.083 266.667,283.333L266.667,1316.67C266.667,1398.92 334.417,1466.67 416.667,1466.67L1183.33,1466.67C1265.58,1466.67 1333.33,1398.92 1333.33,1316.67L1333.33,616.667C1333.33,603.412 1328.06,590.687 1318.68,581.315L885.352,147.982C875.98,138.609 863.255,133.336 850,133.333L416.667,133.333ZM416.667,233.333L800,233.333L800,516.667C800,598.917 867.75,666.667 950,666.667L1233.33,666.667L1233.33,1316.67C1233.33,1344.88 1211.55,1366.67 1183.33,1366.67L416.667,1366.67C388.45,1366.67 366.667,1344.88 366.667,1316.67L366.667,283.333C366.667,255.117 388.45,233.333 416.667,233.333ZM900,304.036L1162.63,566.667L950,566.667C921.783,566.667 900,544.883 900,516.667L900,304.036Z" style="fill-rule:nonzero;"/>
    </g></svg>