<svg fill="#000000" xmlns="http://www.w3.org/2000/svg"  viewBox="0 0 1340 1340"><g transform="matrix(1,0,0,1,-114,-130)">
        <path d="M650,133.333C649.764,133.33 649.529,133.328 649.293,133.328C621.861,133.328 599.288,155.901 599.288,183.333C599.288,210.765 621.861,233.338 649.293,233.338C649.529,233.338 649.764,233.337 650,233.333L733.333,233.333L733.333,1366.67L650,1366.67C649.764,1366.66 649.529,1366.66 649.293,1366.66C621.861,1366.66 599.288,1389.24 599.288,1416.67C599.288,1444.1 621.861,1466.67 649.293,1466.67C649.529,1466.67 649.764,1466.67 650,1466.67L775.13,1466.67C780.498,1467.55 785.974,1467.55 791.341,1466.67L916.667,1466.67C916.902,1466.67 917.138,1466.67 917.374,1466.67C944.806,1466.67 967.379,1444.1 967.379,1416.67C967.379,1389.24 944.806,1366.66 917.374,1366.66C917.138,1366.66 916.902,1366.66 916.667,1366.67L833.333,1366.67L833.333,233.333L916.667,233.333C916.902,233.337 917.138,233.338 917.374,233.338C944.806,233.338 967.379,210.765 967.379,183.333C967.379,155.901 944.806,133.328 917.374,133.328C917.138,133.328 916.902,133.33 916.667,133.333L650,133.333ZM350,333.333C230.935,333.333 133.333,430.935 133.333,550L133.333,1050C133.333,1169.07 230.935,1266.67 350,1266.67L666.667,1266.67L666.667,1166.67L350,1166.67C284.998,1166.67 233.333,1115 233.333,1050L233.333,550C233.333,484.998 284.998,433.333 350,433.333L666.667,433.333L666.667,333.333L350,333.333ZM900,333.333L900,433.333L1216.67,433.333C1281.67,433.333 1333.33,484.998 1333.33,550L1333.33,1050C1333.33,1115 1281.67,1166.67 1216.67,1166.67L900,1166.67L900,1266.67L1216.67,1266.67C1335.73,1266.67 1433.33,1169.07 1433.33,1050L1433.33,550C1433.33,430.935 1335.73,333.333 1216.67,333.333L900,333.333Z" style="fill-rule:nonzero;"/>
    </g></svg>