<svg fill="#FFFFFF" xmlns="http://www.w3.org/2000/svg"  viewBox="0 0 1600 1600"><g transform="matrix(1.33333,0,0,1.33333,-266.667,-266.663)">
        <path d="M283.333,200C237.88,200 200,237.88 200,283.333L200,386.328C200,462.883 235.183,535.295 295.313,582.682L633.333,849.023L633.333,1350C633.347,1377.42 655.916,1399.98 683.338,1399.98C693.745,1399.98 703.897,1396.73 712.37,1390.69L945.703,1224.02C958.842,1214.65 966.661,1199.47 966.667,1183.33L966.667,848.958L1304.69,582.682C1364.82,535.295 1400,462.883 1400,386.328L1400,283.333C1400,237.88 1362.12,200 1316.67,200L283.333,200ZM300,300L1300,300L1300,386.328C1300,432.306 1278.98,475.623 1242.84,504.102L909.57,766.667L690.43,766.667L357.161,504.102C321.025,475.623 300,432.306 300,386.328L300,300ZM733.333,866.667L866.667,866.667L866.667,1157.62L733.333,1252.87L733.333,866.667Z" style="fill-rule:nonzero;"/>
    </g></svg>