<svg fill="#000000" xmlns="http://www.w3.org/2000/svg"  viewBox="0 0 1340 1340"><g transform="matrix(1,0,0,1,-130,-130)">
        <path d="M283.333,266.667C201.083,266.667 133.333,334.417 133.333,416.667L133.333,1183.33C133.333,1265.58 201.083,1333.33 283.333,1333.33L1316.67,1333.33C1398.92,1333.33 1466.67,1265.58 1466.67,1183.33L1466.67,583.333C1466.67,501.083 1398.92,433.333 1316.67,433.333L801.432,433.333L652.474,309.18C652.452,309.18 652.431,309.18 652.409,309.18C619.47,281.737 577.972,266.667 535.091,266.667L283.333,266.667ZM283.333,366.667L535.091,366.667C554.61,366.667 573.419,373.512 588.411,386.003L751.302,521.745C760.292,529.236 771.632,533.338 783.333,533.333L1316.67,533.333C1344.88,533.333 1366.67,555.117 1366.67,583.333L1366.67,1183.33C1366.67,1211.55 1344.88,1233.33 1316.67,1233.33L283.333,1233.33C255.117,1233.33 233.333,1211.55 233.333,1183.33L233.333,416.667C233.333,388.45 255.117,366.667 283.333,366.667ZM815.885,632.617C788.481,633.045 766.274,655.928 766.667,683.333L766.667,762.63L710.612,706.576C701.2,696.883 688.25,691.407 674.74,691.406C647.312,691.413 624.747,713.984 624.747,741.411C624.747,754.919 630.22,767.867 639.909,777.279L695.964,833.333L616.667,833.333C616.431,833.33 616.195,833.328 615.96,833.328C588.528,833.328 565.955,855.901 565.955,883.333C565.955,910.765 588.528,933.338 615.96,933.338C616.195,933.338 616.431,933.337 616.667,933.333L695.964,933.333L639.909,989.388C630.092,998.813 624.536,1011.85 624.536,1025.46C624.536,1052.89 647.109,1075.46 674.541,1075.46C688.15,1075.46 701.187,1069.91 710.612,1060.09L766.667,1004.04L766.667,1083.33C766.663,1083.57 766.662,1083.81 766.662,1084.04C766.662,1111.47 789.235,1134.05 816.667,1134.05C844.099,1134.05 866.672,1111.47 866.672,1084.04C866.672,1083.81 866.67,1083.57 866.667,1083.33L866.667,1004.04L922.721,1060.09C932.147,1069.91 945.183,1075.46 958.793,1075.46C986.225,1075.46 1008.8,1052.89 1008.8,1025.46C1008.8,1011.85 1003.24,998.813 993.424,989.388L937.37,933.333L1016.67,933.333C1016.9,933.337 1017.14,933.338 1017.37,933.338C1044.81,933.338 1067.38,910.765 1067.38,883.333C1067.38,855.901 1044.81,833.328 1017.37,833.328C1017.14,833.328 1016.9,833.33 1016.67,833.333L937.37,833.333L993.424,777.279C1003.24,767.853 1008.8,754.817 1008.8,741.207C1008.8,713.775 986.225,691.202 958.793,691.202C945.183,691.202 932.147,696.758 922.721,706.576L866.667,762.63L866.667,683.333C866.67,683.094 866.672,682.855 866.672,682.616C866.672,655.184 844.099,632.611 816.667,632.611C816.406,632.611 816.146,632.613 815.885,632.617Z" style="fill-rule:nonzero;"/>
    </g></svg>