<svg fill="#000000" xmlns="http://www.w3.org/2000/svg"  viewBox="0 0 1600 1600"><g transform="matrix(1.19956,0,0,1.19956,-159.645,-159.608)">
        <path d="M800,133.333C487.642,133.333 233.333,387.642 233.333,700C233.333,840.226 284.777,968.828 369.271,1067.71L369.531,1067.97L369.727,1068.23C369.727,1068.23 610.791,1343.3 696.615,1425.19C754.086,1479.99 845.849,1479.99 903.32,1425.19C1001.15,1331.89 1230.34,1068.1 1230.34,1068.1L1230.47,1067.9L1230.66,1067.71C1315.23,968.827 1366.67,840.226 1366.67,700C1366.67,387.642 1112.36,133.333 800,133.333ZM800,233.333C1058.31,233.333 1266.67,441.692 1266.67,700C1266.67,815.84 1224.45,921.086 1154.62,1002.73C1154.17,1003.25 919.668,1271.45 834.31,1352.87C814.514,1371.74 785.421,1371.74 765.625,1352.87C694.286,1284.79 446.037,1003.56 445.313,1002.73L445.247,1002.67C375.511,921.028 333.333,815.808 333.333,700C333.333,441.692 541.692,233.333 800,233.333ZM800,500C737.5,500 684.294,525.238 650.13,563.672C615.967,602.106 600,651.389 600,700C600,748.611 615.967,797.894 650.13,836.328C684.294,874.762 737.5,900 800,900C862.5,900 915.706,874.762 949.87,836.328C984.033,797.894 1000,748.611 1000,700C1000,651.389 984.033,602.106 949.87,563.672C915.706,525.238 862.5,500 800,500ZM800,600C837.5,600 859.294,612.262 875.13,630.078C890.967,647.894 900,673.611 900,700C900,726.389 890.967,752.106 875.13,769.922C859.294,787.738 837.5,800 800,800C762.5,800 740.706,787.738 724.87,769.922C709.033,752.106 700,726.389 700,700C700,673.611 709.033,647.894 724.87,630.078C740.706,612.262 762.5,600 800,600Z" style="fill-rule:nonzero;"/>
    </g></svg>