<svg fill="#000000" xmlns="http://www.w3.org/2000/svg"  viewBox="0 0 1404 1404"><g transform="matrix(1,0,0,1,-130,-130)">
        <path d="M233.333,583.333L1366.67,583.333" style="fill:none;fill-rule:nonzero;stroke:black;stroke-width:100px;"/>
    </g>
    <g transform="matrix(1,0,0,1,-130,-130)">
        <path d="M781.3,1364.23C709.267,1347.53 635.267,1236.47 595.767,1066.67L745.4,1066.67C753.733,1031.5 766.167,997.933 782.467,966.667L577.6,966.667C570.667,914.7 566.667,859.033 566.667,800C566.667,466.033 689.633,233.333 800,233.333C905.267,233.333 1021.8,445.367 1032.3,754.833C1063.93,744.533 1097.13,737.867 1131.5,735.1C1122.67,545.4 1075.83,381.233 1005.7,272.533C1211.37,353.033 1358.73,550.033 1366,782.133C1401.97,800.833 1434.87,824.433 1464.07,852.033C1465.37,834.8 1466.67,817.567 1466.67,800C1466.67,432.4 1167.6,133.333 800,133.333C432.4,133.333 133.333,432.4 133.333,800C133.333,1167.6 432.4,1466.67 800,1466.67C817.567,1466.67 834.8,1465.37 852.033,1464.03C824,1434.37 800.133,1400.87 781.3,1364.23ZM233.333,800C233.333,560.133 383.367,355.1 594.333,272.533C516.267,393.5 466.667,582.833 466.667,800C466.667,857.867 470.567,913.467 477.167,966.667L258.433,966.667C242.167,913.933 233.333,858 233.333,800ZM300.267,1066.67L493.6,1066.67C515.7,1170.5 550.567,1259.6 594.333,1327.47C468.133,1278.07 363.733,1185.1 300.267,1066.67Z" style="fill-rule:nonzero;"/>
    </g>
    <g transform="matrix(1,0,0,1,-130,-130)">
        <path d="M1166.67,800C964.167,800 800,964.167 800,1166.67C800,1369.17 964.167,1533.33 1166.67,1533.33C1369.17,1533.33 1533.33,1369.17 1533.33,1166.67C1533.33,964.167 1369.17,800 1166.67,800ZM1133.33,966.667C1133.33,948.267 1148.23,933.333 1166.67,933.333C1185.1,933.333 1200,948.267 1200,966.667L1200,1233.33C1200,1251.73 1185.1,1266.67 1166.67,1266.67C1148.23,1266.67 1133.33,1251.73 1133.33,1233.33L1133.33,966.667ZM1166.67,1408.33C1143.67,1408.33 1125,1389.67 1125,1366.67C1125,1343.67 1143.67,1325 1166.67,1325C1189.67,1325 1208.33,1343.67 1208.33,1366.67C1208.33,1389.67 1189.67,1408.33 1166.67,1408.33Z" style="fill-rule:nonzero;"/>
    </g></svg>