<svg fill="#000000" xmlns="http://www.w3.org/2000/svg"  viewBox="0 0 1405 1405"><g transform="matrix(1,0,0,1,-130,-130)">
        <path d="M800,133.333C432.4,133.333 133.333,432.4 133.333,800C133.333,1167.6 432.4,1466.67 800,1466.67C817.567,1466.67 834.785,1465.4 852.018,1464.06C823.985,1434.4 800.148,1400.89 781.315,1364.26C709.282,1347.56 635.268,1236.47 595.768,1066.67L745.378,1066.67C753.711,1031.5 766.187,997.933 782.487,966.667L577.604,966.667C570.671,914.7 566.667,859.033 566.667,800C566.667,740.968 570.669,685.311 577.604,633.333L1022.13,633.333C1027.27,671.863 1030.85,712.315 1032.29,754.818C1063.92,744.518 1097.14,737.858 1131.51,735.091C1129.88,700.108 1126.52,666.392 1122.4,633.333L1340.82,633.333C1355.43,680.638 1364.4,730.476 1366.02,782.161C1401.98,800.861 1434.86,824.418 1464.06,852.018C1465.36,834.785 1466.67,817.567 1466.67,800C1466.67,432.4 1167.6,133.333 800,133.333ZM800,233.333C877.6,233.333 961.182,348.791 1004.04,533.333L595.768,533.333C638.685,348.784 722.362,233.333 800,233.333ZM594.336,272.526C550.644,340.228 516.359,429.907 494.206,533.333L300.716,533.333C364.249,415.192 468.24,321.877 594.336,272.526ZM1005.73,272.526C1131.83,321.882 1235.81,415.152 1299.22,533.333L1106.12,533.333C1084.07,429.686 1049.46,340.302 1005.73,272.526ZM258.594,633.333L477.083,633.333C470.442,686.473 466.667,742.143 466.667,800C466.667,857.867 470.548,913.467 477.148,966.667L258.464,966.667C242.197,913.933 233.333,858 233.333,800C233.333,741.97 242.293,686.045 258.594,633.333ZM1166.67,800C964.167,800 800,964.167 800,1166.67C800,1369.17 964.167,1533.33 1166.67,1533.33C1369.17,1533.33 1533.33,1369.17 1533.33,1166.67C1533.33,964.167 1369.17,800 1166.67,800ZM1133.33,933.333C1151.73,933.333 1166.67,948.267 1166.67,966.667L1166.67,1166.67L1333.33,1166.67C1351.73,1166.67 1366.67,1181.6 1366.67,1200C1366.67,1218.4 1351.73,1233.33 1333.33,1233.33L1133.33,1233.33C1114.93,1233.33 1100,1218.4 1100,1200L1100,966.667C1100,948.267 1114.93,933.333 1133.33,933.333ZM300.26,1066.67L493.62,1066.67C515.72,1170.5 550.569,1259.61 594.336,1327.47C468.136,1278.07 363.727,1185.1 300.26,1066.67Z" style="fill-rule:nonzero;"/>
    </g></svg>