<svg fill="#000000" xmlns="http://www.w3.org/2000/svg"  viewBox="0 0 1600 1600"><g transform="matrix(1.14286,0,0,1.14286,-114.286,-114.286)">
        <path d="M283.333,233.333C182.674,233.333 100,316.008 100,416.667L100,1183.33C100,1283.99 182.674,1366.67 283.333,1366.67L1316.67,1366.67C1417.33,1366.67 1500,1283.99 1500,1183.33L1500,416.667C1500,316.008 1417.33,233.333 1316.67,233.333L283.333,233.333ZM283.333,333.333L716.667,333.333C763.274,333.333 800,370.059 800,416.667L800,716.667C800,763.274 763.274,800 716.667,800L283.333,800C236.726,800 200,763.274 200,716.667L200,416.667C200,410.841 200.597,405.139 201.693,399.674C209.359,361.422 242.552,333.333 283.333,333.333ZM879.557,333.333L1016.67,333.333C1063.27,333.333 1100,370.059 1100,416.667L1100,950C1100,996.608 1063.27,1033.33 1016.67,1033.33L283.333,1033.33C236.726,1033.33 200,996.608 200,950L200,879.557C225.076,892.51 253.36,900 283.333,900L716.667,900C817.326,900 900,817.326 900,716.667L900,416.667C900,386.693 892.51,358.409 879.557,333.333ZM1179.56,333.333L1316.67,333.333C1363.27,333.333 1400,370.059 1400,416.667L1400,1183.33C1400,1229.94 1363.27,1266.67 1316.67,1266.67L283.333,1266.67C236.726,1266.67 200,1229.94 200,1183.33L200,1112.89C225.076,1125.84 253.36,1133.33 283.333,1133.33L1016.67,1133.33C1117.33,1133.33 1200,1050.66 1200,950L1200,416.667C1200,386.693 1192.51,358.409 1179.56,333.333Z" style="fill-rule:nonzero;"/>
    </g></svg>