<svg fill="#FFFFFF" xmlns="http://www.w3.org/2000/svg"  viewBox="0 0 1466 1466"><g transform="matrix(1,0,0,1,-67,0)">
        <path d="M800,0C708.545,0 633.333,75.211 633.333,166.667L633.333,200L416.667,200C334.417,200 266.667,267.75 266.667,350L266.667,1316.67C266.667,1398.92 334.417,1466.67 416.667,1466.67L1183.33,1466.67C1265.58,1466.67 1333.33,1398.92 1333.33,1316.67L1333.33,350C1333.33,267.75 1265.58,200 1183.33,200L966.667,200L966.667,166.667C966.667,75.211 891.455,0 800,0ZM800,100C837.411,100 866.667,129.255 866.667,166.667L866.667,300L733.333,300L733.333,166.667C733.333,129.255 762.589,100 800,100ZM416.667,300L633.333,300L633.333,350C633.336,377.428 655.905,399.997 683.333,400L916.667,400C944.095,399.997 966.664,377.428 966.667,350L966.667,300L1183.33,300C1211.55,300 1233.33,321.783 1233.33,350L1233.33,1316.67C1233.33,1344.88 1211.55,1366.67 1183.33,1366.67L416.667,1366.67C388.45,1366.67 366.667,1344.88 366.667,1316.67L366.667,350C366.667,321.783 388.45,300 416.667,300ZM1065.69,632.878C1052.71,633.256 1040.37,638.676 1031.32,647.982L733.333,945.964L568.685,781.315C559.259,771.498 546.224,765.943 532.614,765.943C505.183,765.943 482.609,788.516 482.609,815.948C482.609,829.557 488.165,842.593 497.982,852.018L697.982,1052.02C717.378,1071.41 749.289,1071.41 768.685,1052.02L1102.02,718.685C1111.68,709.276 1117.13,696.348 1117.13,682.862C1117.13,655.43 1094.56,632.857 1067.13,632.857C1066.65,632.857 1066.17,632.864 1065.69,632.878Z" style="fill-rule:nonzero;"/>
    </g></svg>