<svg fill="#000000" xmlns="http://www.w3.org/2000/svg"  viewBox="0 0 1300 1300"><g transform="matrix(1,0,0,1,-149,-135)">
        <path d="M849.479,132.813C847.257,132.838 845.038,133.012 842.839,133.333L416.667,133.333C334.417,133.333 266.667,201.083 266.667,283.333L266.667,916.667C266.663,916.902 266.662,917.138 266.662,917.374C266.662,944.806 289.235,967.379 316.667,967.379C344.099,967.379 366.672,944.806 366.672,917.374C366.672,917.138 366.67,916.902 366.667,916.667L366.667,283.333C366.667,255.117 388.45,233.333 416.667,233.333L800,233.333L800,516.667C800,598.917 867.75,666.667 950,666.667L1233.33,666.667L1233.33,883.333C1233.33,883.569 1233.33,883.805 1233.33,884.04C1233.33,911.472 1255.9,934.045 1283.33,934.045C1310.77,934.045 1333.34,911.472 1333.34,884.04C1333.34,883.805 1333.34,883.569 1333.33,883.333L1333.33,624.023C1335.29,609.755 1330.99,595.315 1321.55,584.44C1320.64,583.358 1319.68,582.316 1318.68,581.315L885.352,147.982C885.265,147.895 885.178,147.808 885.091,147.721C885.005,147.634 884.918,147.547 884.831,147.461C884.573,147.241 884.312,147.024 884.049,146.81C883.087,145.88 882.088,144.99 881.055,144.141C872.15,136.843 860.992,132.84 849.479,132.813ZM900,304.036L1162.63,566.667L950,566.667C921.783,566.667 900,544.883 900,516.667L900,304.036ZM1083.33,1000C1083.1,999.997 1082.86,999.995 1082.63,999.995C1055.19,999.995 1032.62,1022.57 1032.62,1050C1032.62,1077.43 1055.19,1100.01 1082.63,1100.01C1082.86,1100.01 1083.1,1100 1083.33,1100L1257.94,1100C1191.74,1177.95 1026.31,1333.33 759.049,1333.33C402.337,1333.33 260.807,1059.83 260.807,1059.83C252.224,1043.13 234.925,1032.61 216.146,1032.68C188.777,1032.77 166.308,1055.32 166.308,1082.69C166.308,1091.13 168.448,1099.44 172.526,1106.84C172.526,1106.84 350.095,1433.33 759.049,1433.33C1061.88,1433.33 1253.9,1256.34 1333.33,1164.39L1333.33,1350C1333.33,1350.24 1333.33,1350.47 1333.33,1350.71C1333.33,1378.14 1355.9,1400.71 1383.33,1400.71C1410.77,1400.71 1433.34,1378.14 1433.34,1350.71C1433.34,1350.47 1433.34,1350.24 1433.33,1350L1433.33,1050C1433.33,1022.57 1410.76,1000 1383.33,1000L1083.33,1000Z" style="fill-rule:nonzero;"/>
    </g></svg>