<svg fill="#000000" xmlns="http://www.w3.org/2000/svg"  viewBox="0 0 1600 1600"><g transform="matrix(1.14286,0,0,1.14286,0,0)">
        <path d="M383.333,0C172.216,0 0,172.216 0,383.333C0,594.45 172.216,766.667 383.333,766.667C594.45,766.667 766.667,594.45 766.667,383.333C766.667,172.216 594.45,0 383.333,0ZM383.333,100C540.406,100 666.667,226.26 666.667,383.333C666.667,540.406 540.406,666.667 383.333,666.667C226.26,666.667 100,540.406 100,383.333C100,226.26 226.26,100 383.333,100ZM382.552,165.951C355.148,166.379 332.94,189.262 333.333,216.667L333.333,383.333C333.336,396.588 338.609,409.313 347.982,418.685L414.648,485.352C424.074,495.168 437.11,500.724 450.719,500.724C478.151,500.724 500.724,478.151 500.724,450.719C500.724,437.11 495.168,424.074 485.352,414.648L433.333,362.63L433.333,216.667C433.337,216.428 433.338,216.189 433.338,215.949C433.338,188.517 410.765,165.944 383.333,165.944C383.073,165.944 382.813,165.946 382.552,165.951ZM794.01,200C808.144,231.6 818.792,265.067 825.326,300L1183.33,300C1247.67,300 1300,352.333 1300,416.667L1300,466.667L825.326,466.667C818.759,501.6 808.11,535.067 794.01,566.667L1300,566.667L1300,1183.33C1300,1247.67 1247.67,1300 1183.33,1300L416.667,1300C352.333,1300 300,1247.67 300,1183.33L300,825.326C265.067,818.759 231.6,808.11 200,794.01L200,1183.33C200,1302.8 297.2,1400 416.667,1400L1183.33,1400C1302.8,1400 1400,1302.8 1400,1183.33L1400,416.667C1400,297.2 1302.8,200 1183.33,200L794.01,200ZM800,700C754.285,700 716.667,737.618 716.667,783.333C716.667,829.049 754.285,866.667 800,866.667C845.715,866.667 883.333,829.049 883.333,783.333C883.333,737.618 845.715,700 800,700ZM1083.33,700C1037.62,700 1000,737.618 1000,783.333C1000,829.049 1037.62,866.667 1083.33,866.667C1129.05,866.667 1166.67,829.049 1166.67,783.333C1166.67,737.618 1129.05,700 1083.33,700ZM516.667,1000C470.951,1000 433.333,1037.62 433.333,1083.33C433.333,1129.05 470.951,1166.67 516.667,1166.67C562.382,1166.67 600,1129.05 600,1083.33C600,1037.62 562.382,1000 516.667,1000ZM800,1000C754.285,1000 716.667,1037.62 716.667,1083.33C716.667,1129.05 754.285,1166.67 800,1166.67C845.715,1166.67 883.333,1129.05 883.333,1083.33C883.333,1037.62 845.715,1000 800,1000Z" style="fill-rule:nonzero;"/>
    </g></svg>