<svg fill="#FFFFFF" xmlns="http://www.w3.org/2000/svg"  viewBox="0 0 1435 1435"><g transform="matrix(1,0,0,1,-100,-65)">
        <path d="M1366.67,817.667L1366.67,1016.67C1366.67,1081 1314.33,1133.33 1250,1133.33L850,1133.33C839.333,1133.33 828.667,1137 820,1143.33L500,1383.33L500,1183.33C500,1155.67 477.667,1133.33 450,1133.33L350,1133.33C285.667,1133.33 233.333,1081 233.333,1016.67L233.333,450C233.333,385.667 285.667,333.333 350,333.333L745,333.333C753.333,298 766,264.667 782.333,233.333L350,233.333C230.667,233.333 133.333,330.667 133.333,450L133.333,1016.67C133.333,1136 230.667,1233.33 350,1233.33L400,1233.33L400,1416.67C400,1448.33 417.667,1477 446,1491.33C458,1497 470.667,1500 483.333,1500C501,1500 518.667,1494.33 533.333,1483.33L866.667,1233.33L1250,1233.33C1369.33,1233.33 1466.67,1136 1466.67,1016.67L1466.67,745.667C1437,774.333 1403.33,798.667 1366.67,817.667Z" style="fill-rule:nonzero;"/>
    </g>
    <g transform="matrix(1,0,0,1,-99,-798)">
        <path d="M1166.67,800C964.167,800 800,964.167 800,1166.67C800,1369.17 964.167,1533.33 1166.67,1533.33C1369.17,1533.33 1533.33,1369.17 1533.33,1166.67C1533.33,964.167 1369.17,800 1166.67,800ZM1133.33,966.667C1133.33,948.267 1148.23,933.333 1166.67,933.333C1185.1,933.333 1200,948.267 1200,966.667L1200,1233.33C1200,1251.73 1185.1,1266.67 1166.67,1266.67C1148.23,1266.67 1133.33,1251.73 1133.33,1233.33L1133.33,966.667ZM1166.67,1408.33C1143.67,1408.33 1125,1389.67 1125,1366.67C1125,1343.67 1143.67,1325 1166.67,1325C1189.67,1325 1208.33,1343.67 1208.33,1366.67C1208.33,1389.67 1189.67,1408.33 1166.67,1408.33Z" style="fill-rule:nonzero;"/>
    </g></svg>