<svg fill="#000000" xmlns="http://www.w3.org/2000/svg"  viewBox="0 0 1435 1435"><g transform="matrix(1,0,0,1,-100,-65)">
        <path d="M1366.67,817.667L1366.67,1016.67C1366.67,1081 1314.33,1133.33 1250,1133.33L850,1133.33C839.333,1133.33 828.667,1137 820,1143.33L500,1383.33L500,1183.33C500,1155.67 477.667,1133.33 450,1133.33L350,1133.33C285.667,1133.33 233.333,1081 233.333,1016.67L233.333,450C233.333,385.667 285.667,333.333 350,333.333L745,333.333C753.333,298 766,264.667 782.333,233.333L350,233.333C230.667,233.333 133.333,330.667 133.333,450L133.333,1016.67C133.333,1136 230.667,1233.33 350,1233.33L400,1233.33L400,1416.67C400,1448.33 417.667,1477 446,1491.33C458,1497 470.667,1500 483.333,1500C501,1500 518.667,1494.33 533.333,1483.33L866.667,1233.33L1250,1233.33C1369.33,1233.33 1466.67,1136 1466.67,1016.67L1466.67,745.667C1437,774.333 1403.33,798.667 1366.67,817.667Z" style="fill-rule:nonzero;"/>
    </g>
    <g transform="matrix(1,0,0,1,-100,-65)">
        <path d="M1166.67,66.667C1369.17,66.667 1533.33,230.833 1533.33,433.333C1533.33,635.833 1369.17,800 1166.67,800C964.167,800 800,635.833 800,433.333C800,230.833 964.167,66.667 1166.67,66.667ZM1123.57,590.233L1390.23,323.567C1403.27,310.533 1403.27,289.467 1390.23,276.433C1377.2,263.4 1356.13,263.4 1343.1,276.433L1100,519.533L990.233,409.767C977.2,396.733 956.133,396.733 943.1,409.767C930.067,422.8 930.067,443.867 943.1,456.9L1076.43,590.233C1082.93,596.733 1091.47,600 1100,600C1108.53,600 1117.07,596.733 1123.57,590.233Z" style="fill-rule:nonzero;"/>
    </g></svg>