<svg fill="#FFFFFF" xmlns="http://www.w3.org/2000/svg"  viewBox="0 0 1600 1600"><g transform="matrix(1.201,0,0,1.201,-160.8,-160.8)">
        <path d="M800,133.333C432.402,133.333 133.333,432.402 133.333,800C133.333,1167.6 432.402,1466.67 800,1466.67C1167.6,1466.67 1466.67,1167.6 1466.67,800C1466.67,432.402 1167.6,133.333 800,133.333ZM800,233.333C1113.55,233.333 1366.67,486.446 1366.67,800C1366.67,1113.55 1113.55,1366.67 800,1366.67C486.446,1366.67 233.333,1113.55 233.333,800C233.333,486.446 486.446,233.333 800,233.333ZM782.552,399.284C755.148,399.712 732.94,422.595 733.333,450L733.333,850C733.336,877.428 755.905,899.997 783.333,900L1050,900C1050.24,900.003 1050.47,900.005 1050.71,900.005C1078.14,900.005 1100.71,877.432 1100.71,850C1100.71,822.568 1078.14,799.995 1050.71,799.995C1050.47,799.995 1050.24,799.997 1050,800L833.333,800L833.333,450C833.337,449.761 833.338,449.522 833.338,449.283C833.338,421.851 810.765,399.278 783.333,399.278C783.073,399.278 782.813,399.28 782.552,399.284Z" style="fill-rule:nonzero;"/>
    </g></svg>