<svg fill="#FFFFFF" xmlns="http://www.w3.org/2000/svg"  viewBox="0 0 1600 1600"><g transform="matrix(1.201,0,0,1.201,-160.8,-160.8)">
        <path d="M800,133.333C432.402,133.333 133.333,432.402 133.333,800C133.333,1167.6 432.402,1466.67 800,1466.67C1167.6,1466.67 1466.67,1167.6 1466.67,800C1466.67,432.402 1167.6,133.333 800,133.333ZM800,233.333C1113.55,233.333 1366.67,486.446 1366.67,800C1366.67,1113.55 1113.55,1366.67 800,1366.67C486.446,1366.67 233.333,1113.55 233.333,800C233.333,486.446 486.446,233.333 800,233.333ZM799.219,432.617C771.814,433.045 749.607,455.928 750,483.333L750,883.333C749.997,883.569 749.995,883.805 749.995,884.04C749.995,911.472 772.568,934.045 800,934.045C827.432,934.045 850.005,911.472 850.005,884.04C850.005,883.805 850.003,883.569 850,883.333L850,483.333C850.003,483.094 850.005,482.855 850.005,482.616C850.005,455.184 827.432,432.611 800,432.611C799.74,432.611 799.479,432.613 799.219,432.617ZM800,1033.33C763.428,1033.33 733.333,1063.43 733.333,1100C733.333,1136.57 763.428,1166.67 800,1166.67C836.572,1166.67 866.667,1136.57 866.667,1100C866.667,1063.43 836.572,1033.33 800,1033.33Z" style="fill-rule:nonzero;"/>
    </g></svg>