<svg fill="#FFFFFF" xmlns="http://www.w3.org/2000/svg"  viewBox="0 0 1600 1600"><g transform="matrix(1.1995,0,0,1.1995,-159.6,-159.6)">
        <path d="M800,133.333C432.402,133.333 133.333,432.402 133.333,800C133.333,1167.6 432.402,1466.67 800,1466.67C1167.6,1466.67 1466.67,1167.6 1466.67,800C1466.67,432.402 1167.6,133.333 800,133.333ZM800,233.333C1113.55,233.333 1366.67,486.446 1366.67,800C1366.67,1113.55 1113.55,1366.67 800,1366.67C486.446,1366.67 233.333,1113.55 233.333,800C233.333,486.446 486.446,233.333 800,233.333ZM849.479,549.479C822.052,549.486 799.486,572.057 799.486,599.484C799.486,612.992 804.96,625.939 814.648,635.352L929.297,750L550,750C549.764,749.997 549.529,749.995 549.293,749.995C521.861,749.995 499.288,772.568 499.288,800C499.288,827.432 521.861,850.005 549.293,850.005C549.529,850.005 549.764,850.003 550,850L929.297,850L814.648,964.648C804.832,974.074 799.276,987.11 799.276,1000.72C799.276,1028.15 821.849,1050.72 849.281,1050.72C862.89,1050.72 875.926,1045.17 885.352,1035.35L1085.35,835.352C1104.74,815.956 1104.74,784.044 1085.35,764.648L885.352,564.648C875.939,554.956 862.99,549.48 849.479,549.479Z" style="fill-rule:nonzero;"/>
    </g></svg>