<svg fill="#FFFFFF" xmlns="http://www.w3.org/2000/svg"  viewBox="0 0 1600 1600"><g transform="matrix(1.201,0,0,1.201,-160.8,-160.8)">
        <path d="M800,133.333C432.402,133.333 133.333,432.402 133.333,800C133.333,1167.6 432.402,1466.67 800,1466.67C1167.6,1466.67 1466.67,1167.6 1466.67,800C1466.67,432.402 1167.6,133.333 800,133.333ZM800,233.333C1113.55,233.333 1366.67,486.446 1366.67,800C1366.67,1113.55 1113.55,1366.67 800,1366.67C486.446,1366.67 233.333,1113.55 233.333,800C233.333,486.446 486.446,233.333 800,233.333ZM799.219,499.284C771.814,499.712 749.607,522.595 750,550L750,929.297L635.352,814.648C625.926,804.832 612.89,799.276 599.281,799.276C571.849,799.276 549.276,821.849 549.276,849.281C549.276,862.89 554.832,875.926 564.648,885.352L764.648,1085.35C784.044,1104.74 815.956,1104.74 835.352,1085.35L1035.35,885.352C1045.17,875.926 1050.72,862.89 1050.72,849.281C1050.72,821.849 1028.15,799.276 1000.72,799.276C987.11,799.276 974.074,804.832 964.648,814.648L850,929.297L850,550C850.003,549.761 850.005,549.522 850.005,549.283C850.005,521.851 827.432,499.278 800,499.278C799.74,499.278 799.479,499.28 799.219,499.284Z" style="fill-rule:nonzero;"/>
    </g></svg>