<svg fill="#FFFFFF" xmlns="http://www.w3.org/2000/svg"  viewBox="0 0 1600 1600"><g transform="matrix(1.201,0,0,1.201,-160.8,-160.8)">
        <path d="M800,133.333C432.402,133.333 133.333,432.402 133.333,800C133.333,1167.6 432.402,1466.67 800,1466.67C1167.6,1466.67 1466.67,1167.6 1466.67,800C1466.67,432.402 1167.6,133.333 800,133.333ZM800,233.333C1113.55,233.333 1366.67,486.446 1366.67,800C1366.67,1113.55 1113.55,1366.67 800,1366.67C486.446,1366.67 233.333,1113.55 233.333,800C233.333,486.446 486.446,233.333 800,233.333ZM1049.02,599.544C1036.04,599.923 1023.71,605.343 1014.65,614.648L716.667,912.63L585.352,781.315C575.926,771.498 562.89,765.943 549.281,765.943C521.849,765.943 499.276,788.516 499.276,815.948C499.276,829.557 504.832,842.593 514.648,852.018L681.315,1018.69C700.711,1038.07 732.622,1038.07 752.018,1018.69L1085.35,685.352C1095.01,675.943 1100.47,663.014 1100.47,649.529C1100.47,622.097 1077.89,599.524 1050.46,599.524C1049.98,599.524 1049.5,599.53 1049.02,599.544Z" style="fill-rule:nonzero;"/>
    </g></svg>