<svg fill="#FFFFFF" xmlns="http://www.w3.org/2000/svg"  viewBox="0 0 1600 1600"><g transform="matrix(1.201,0,0,1.201,-160.8,-160.8)">
        <path d="M800,133.333C432.402,133.333 133.333,432.402 133.333,800C133.333,1167.6 432.402,1466.67 800,1466.67C1167.6,1466.67 1466.67,1167.6 1466.67,800C1466.67,432.402 1167.6,133.333 800,133.333ZM800,233.333C1113.55,233.333 1366.67,486.446 1366.67,800C1366.67,1113.55 1113.55,1366.67 800,1366.67C486.446,1366.67 233.333,1113.55 233.333,800C233.333,486.446 486.446,233.333 800,233.333ZM1016.21,532.617C1003.01,532.929 990.458,538.456 981.315,547.982L800,729.297L618.685,547.982C609.273,538.289 596.323,532.813 582.812,532.813C555.385,532.819 532.82,555.39 532.82,582.817C532.82,596.325 538.293,609.273 547.982,618.685L729.297,800L547.982,981.315C538.165,990.741 532.609,1003.78 532.609,1017.39C532.609,1044.82 555.183,1067.39 582.614,1067.39C596.224,1067.39 609.259,1061.84 618.685,1052.02L800,870.703L981.315,1052.02C990.741,1061.84 1003.78,1067.39 1017.39,1067.39C1044.82,1067.39 1067.39,1044.82 1067.39,1017.39C1067.39,1003.78 1061.84,990.741 1052.02,981.315L870.703,800L1052.02,618.685C1061.84,609.259 1067.4,596.22 1067.4,582.608C1067.4,555.176 1044.82,532.603 1017.39,532.603C1017,532.603 1016.61,532.608 1016.21,532.617Z" style="fill-rule:nonzero;"/>
    </g></svg>