<svg fill="#000000" xmlns="http://www.w3.org/2000/svg"  viewBox="0 0 1333 1333"><g transform="matrix(1,0,0,1,-132,-132)">
        <path d="M283.333,266.667C201.083,266.667 133.333,334.417 133.333,416.667L133.333,1183.33C133.333,1265.58 201.083,1333.33 283.333,1333.33L1316.67,1333.33C1398.92,1333.33 1466.67,1265.58 1466.67,1183.33L1466.67,583.333C1466.67,501.083 1398.92,433.333 1316.67,433.333L801.432,433.333L652.409,309.18C619.469,281.737 577.972,266.667 535.091,266.667L283.333,266.667ZM283.333,366.667L535.091,366.667C554.61,366.667 573.419,373.512 588.411,386.003L705.208,483.333L588.411,580.664C573.419,593.155 554.61,600 535.091,600L233.333,600L233.333,416.667C233.333,388.45 255.117,366.667 283.333,366.667ZM801.432,533.333L1316.67,533.333C1344.88,533.333 1366.67,555.117 1366.67,583.333L1366.67,1183.33C1366.67,1211.55 1344.88,1233.33 1316.67,1233.33L283.333,1233.33C255.117,1233.33 233.333,1211.55 233.333,1183.33L233.333,700L535.091,700C577.972,700 619.469,684.93 652.409,657.487L801.432,533.333Z" style="fill-rule:nonzero;"/>
    </g></svg>