<svg fill="#FFFFFF" xmlns="http://www.w3.org/2000/svg"  viewBox="0 0 1430 1430"><g transform="matrix(1,0,0,1,-100,-104)">
        <path d="M283.333,233.333C182.333,233.333 100,315.667 100,416.667L100,1183.33C100,1284.33 182.333,1366.67 283.333,1366.67L782.357,1366.67C766.023,1335.33 753.32,1302 744.987,1266.67L283.333,1266.67C237.333,1266.67 200,1229.33 200,1183.33L200,416.667C200,370.667 237.333,333.333 283.333,333.333L1316.67,333.333C1362.67,333.333 1400,370.667 1400,416.667L1400,801.693C1438,825.693 1471.67,855.641 1500,889.974L1500,416.667C1500,315.667 1417.67,233.333 1316.67,233.333L283.333,233.333ZM283.333,400C264.933,400 250,414.933 250,433.333L250,466.667C250,485.067 264.933,500 283.333,500L316.667,500C335.067,500 350,485.067 350,466.667L350,433.333C350,414.933 335.067,400 316.667,400L283.333,400ZM483.333,400C464.933,400 450,414.933 450,433.333L450,466.667C450,485.067 464.933,500 483.333,500L516.667,500C535.067,500 550,485.067 550,466.667L550,433.333C550,414.933 535.067,400 516.667,400L483.333,400ZM683.333,400C664.933,400 650,414.933 650,433.333L650,466.667C650,485.067 664.933,500 683.333,500L716.667,500C735.067,500 750,485.067 750,466.667L750,433.333C750,414.933 735.067,400 716.667,400L683.333,400ZM883.333,400C864.933,400 850,414.933 850,433.333L850,466.667C850,485.067 864.933,500 883.333,500L916.667,500C935.067,500 950,485.067 950,466.667L950,433.333C950,414.933 935.067,400 916.667,400L883.333,400ZM1083.33,400C1064.93,400 1050,414.933 1050,433.333L1050,466.667C1050,485.067 1064.93,500 1083.33,500L1116.67,500C1135.07,500 1150,485.067 1150,466.667L1150,433.333C1150,414.933 1135.07,400 1116.67,400L1083.33,400ZM1283.33,400C1264.93,400 1250,414.933 1250,433.333L1250,466.667C1250,485.067 1264.93,500 1283.33,500L1316.67,500C1335.07,500 1350,485.067 1350,466.667L1350,433.333C1350,414.933 1335.07,400 1316.67,400L1283.33,400ZM1054.82,817.122C1031.23,819.934 1009.76,836.396 1002.93,861.979L991.927,903.06C985.294,927.827 963.848,945.814 938.281,948.047L895.964,951.758C853.73,955.424 828.03,999.881 845.964,1038.28L863.932,1076.82C874.766,1100.09 869.924,1127.63 851.758,1145.77L821.68,1175.85C791.713,1205.81 800.663,1256.45 839.063,1274.35L877.604,1292.32C900.871,1303.15 914.864,1327.36 912.63,1352.93L908.854,1395.31C905.154,1437.51 944.582,1470.54 985.482,1459.57L1026.56,1448.5C1051.36,1441.84 1077.62,1451.43 1092.32,1472.46L1116.73,1507.29C1141,1541.99 1192.37,1541.99 1216.67,1507.29L1241.02,1472.46C1255.72,1451.46 1282.04,1441.84 1306.84,1448.5L1347.92,1459.57C1388.85,1470.54 1428.18,1437.51 1424.48,1395.31L1420.77,1352.93C1418.5,1327.36 1432.53,1303.15 1455.79,1292.32L1494.27,1274.35C1532.67,1256.45 1541.62,1205.78 1511.65,1175.85L1481.58,1145.77C1463.41,1127.63 1458.53,1100.09 1469.4,1076.82L1487.43,1038.28C1505.34,999.915 1479.63,955.424 1437.43,951.758L1395.05,948.047C1369.49,945.814 1348.04,927.86 1341.41,903.06L1330.4,861.979C1319.47,821.046 1271.22,803.434 1236.52,827.734L1201.69,852.148C1180.69,866.882 1152.67,866.882 1131.71,852.148L1096.88,827.734C1083.88,818.622 1068.97,815.435 1054.82,817.122ZM283.333,1100C265,1100 250,1115 250,1133.33L250,1166.67C250,1185 265,1200 283.333,1200L316.667,1200C335,1200 350,1185 350,1166.67L350,1133.33C350,1115 335,1100 316.667,1100L283.333,1100ZM483.333,1100C465,1100 450,1115 450,1133.33L450,1166.67C450,1185 465,1200 483.333,1200L516.667,1200C535,1200 550,1185 550,1166.67L550,1133.33C550,1115 535,1100 516.667,1100L483.333,1100ZM683.333,1100C665,1100 650,1115 650,1133.33L650,1166.67C650,1185 665,1200 683.333,1200L716.667,1200C723,1200 729.31,1198 734.31,1194.66L734.31,1193.68L737.695,1107.36C732.029,1102.69 724.667,1100 716.667,1100L683.333,1100Z" style="fill-rule:nonzero;"/>
    </g></svg>