<svg xmlns="http://www.w3.org/2000/svg" viewBox="0 0 1600 1600"><g transform="matrix(1.29514,0,0,1.29514,-236.108,-299.865)">
        <path d="M1400,922.533C1300,1037.23 1200,1151.93 1100,1266.67L866.667,1266.67C788.9,1333.33 711.1,1400 633.333,1466.67L533.333,1466.67L533.333,1266.67L200,1266.67L200,523.533C248.5,426.8 296.967,330.067 345.467,233.333L1400,233.333L1400,922.533Z" style="fill:rgb(126,87,194);fill-rule:nonzero;"/>
    </g>
    <g transform="matrix(1.29514,0,0,1.29514,-236.108,-299.865)">
        <path d="M1300,878.967C1244.43,941.533 1188.9,1004.1 1133.33,1066.67L900,1066.67C822.233,1133.33 744.433,1200 666.667,1266.67L666.667,1066.67C577.767,1066.4 488.9,1066.13 400,1065.87L400,333.333L1300,333.333L1300,878.967Z" style="fill:rgb(250,250,250);fill-rule:nonzero;"/>
    </g>
    <g transform="matrix(1.29514,0,0,1.29514,-236.108,-299.865)">
        <rect x="700" y="533.333" width="100" height="333.333" style="fill:rgb(126,87,194);"/>
    </g>
    <g transform="matrix(1.29514,0,0,1.29514,-236.108,-299.865)">
        <rect x="1000" y="533.333" width="100" height="333.333" style="fill:rgb(126,87,194);"/>
    </g></svg>