<svg fill="#000000" xmlns="http://www.w3.org/2000/svg"  viewBox="0 0 1470 1470"><g transform="matrix(1,0,0,1,-30,-67)">
        <path d="M83.333,200C83.098,199.997 82.862,199.995 82.626,199.995C55.194,199.995 32.621,222.568 32.621,250C32.621,277.432 55.194,300.005 82.626,300.005C82.862,300.005 83.098,300.003 83.333,300L166.667,300L166.667,1383.33C166.663,1383.57 166.662,1383.81 166.662,1384.04C166.662,1411.47 189.235,1434.05 216.667,1434.05C244.099,1434.05 266.672,1411.47 266.672,1384.04C266.672,1383.81 266.67,1383.57 266.667,1383.33L266.667,1333.33L416.667,1333.33C444.095,1333.33 466.664,1310.76 466.667,1283.33L466.667,1200L700,1200L700,1283.33C700.003,1310.76 722.572,1333.33 750,1333.33L1316.67,1333.33C1344.1,1333.33 1366.66,1310.76 1366.67,1283.33L1366.67,1200L1383.33,1200C1447.27,1200 1500,1147.27 1500,1083.33L1500,550C1500,486.061 1447.27,433.333 1383.33,433.333L266.667,433.333L266.667,250C266.664,222.572 244.095,200.003 216.667,200L83.333,200ZM266.667,533.333L1383.33,533.333C1392.73,533.333 1400,540.606 1400,550L1400,1083.33C1400,1092.73 1392.73,1100 1383.33,1100L1316.67,1100C1289.24,1100 1266.67,1122.57 1266.67,1150L1266.67,1233.33L800,1233.33L800,1150C799.997,1122.57 777.428,1100 750,1100L416.667,1100C389.239,1100 366.669,1122.57 366.667,1150L366.667,1233.33L266.667,1233.33L266.667,1000L416.667,1000C444.095,999.997 466.664,977.428 466.667,950L466.667,683.333C466.664,655.905 444.095,633.336 416.667,633.333L266.667,633.333L266.667,533.333ZM616.667,633.333C616.431,633.33 616.195,633.328 615.96,633.328C588.528,633.328 565.955,655.901 565.955,683.333C565.955,710.765 588.528,733.338 615.96,733.338C616.195,733.338 616.431,733.337 616.667,733.333L750,733.333C750.236,733.337 750.471,733.338 750.707,733.338C778.139,733.338 800.712,710.765 800.712,683.333C800.712,655.901 778.139,633.328 750.707,633.328C750.471,633.328 750.236,633.33 750,633.333L616.667,633.333ZM983.333,633.333C955.905,633.336 933.336,655.905 933.333,683.333L933.333,950C933.336,977.428 955.905,999.997 983.333,1000L1250,1000C1277.43,999.997 1300,977.428 1300,950L1300,683.333C1300,655.905 1277.43,633.336 1250,633.333L983.333,633.333ZM266.667,733.333L366.667,733.333L366.667,900L266.667,900L266.667,733.333ZM1033.33,733.333L1200,733.333L1200,900L1033.33,900L1033.33,733.333ZM616.667,833.333C616.431,833.33 616.195,833.328 615.96,833.328C588.528,833.328 565.955,855.901 565.955,883.333C565.955,910.765 588.528,933.338 615.96,933.338C616.195,933.338 616.431,933.337 616.667,933.333L750,933.333C750.236,933.337 750.471,933.338 750.707,933.338C778.139,933.338 800.712,910.765 800.712,883.333C800.712,855.901 778.139,833.328 750.707,833.328C750.471,833.328 750.236,833.33 750,833.333L616.667,833.333Z" style="fill-rule:nonzero;"/>
    </g></svg>