<svg fill="#FFFFFF" xmlns="http://www.w3.org/2000/svg"  viewBox="0 0 1600 1600"><path d="M799.544,300C422.224,300 89.762,561.531 1.563,904.232C0.52,908.294 -0.008,912.472 -0.008,916.667C-0.008,944.1 22.566,966.675 50,966.675C72.756,966.675 92.779,951.143 98.438,929.102C174.438,633.803 468.865,400 799.544,400C1130.22,400 1425.58,633.885 1501.56,929.102C1507.22,951.143 1527.24,966.675 1550,966.675C1577.43,966.675 1600.01,944.1 1600.01,916.667C1600.01,912.472 1599.48,908.294 1598.44,904.232C1510.22,561.448 1176.87,300 799.544,300ZM800.065,566.667C622.73,566.667 477.93,711.467 477.93,888.802C477.93,1066.14 622.73,1211 800.065,1211C977.401,1211 1122.27,1066.14 1122.27,888.802C1122.27,711.467 977.401,566.667 800.065,566.667ZM800.065,666.667C923.357,666.667 1022.27,765.511 1022.27,888.802C1022.27,1012.09 923.357,1111 800.065,1111C676.774,1111 577.93,1012.09 577.93,888.802C577.93,765.511 676.774,666.667 800.065,666.667Z"/></svg>