<?xml version="1.0" encoding="UTF-8"?>
<svg xmlns="http://www.w3.org/2000/svg" xmlns:xlink="http://www.w3.org/1999/xlink" viewBox="0 0 1600 1600">
<g id="surface103053526" transform="matrix(1.14286,0,0,1.14286,-114.286,-114.286)">
        <path d="M283.332,233.332C182.676,233.332 100,316.008 100,416.668L100,1183.33C100,1283.99 182.676,1366.67 283.332,1366.67L1316.67,1366.67C1417.32,1366.67 1500,1283.99 1500,1183.33L1500,416.668C1500,316.008 1417.32,233.332 1316.67,233.332L283.332,233.332ZM283.332,333.332L1316.67,333.332C1363.27,333.332 1400,370.059 1400,416.668L1400,1183.33C1400,1229.94 1363.27,1266.67 1316.67,1266.67L283.332,1266.67C236.727,1266.67 200,1229.94 200,1183.33L200,416.668C200,370.059 236.727,333.332 283.332,333.332ZM699.152,566.668C687.734,566.813 676.379,569.863 666.211,575.848C645.844,587.848 633.332,609.734 633.332,633.332L633.332,966.668C633.332,990.266 645.844,1012.15 666.211,1024.15C676.609,1030.29 688.301,1033.33 700,1033.33C711.133,1033.33 722.289,1030.5 732.355,1024.93L1032.36,858.27C1053.52,846.5 1066.67,824.234 1066.67,800C1066.67,775.766 1053.52,753.5 1032.36,741.73L732.355,575.066C722.039,569.332 710.574,566.52 699.152,566.668Z" style="fill:rgb(170,170,170);fill-rule:nonzero;"/>
    </g>
</svg>
